<?xml version="1.0" standalone="no"?>
<!DOCTYPE svg PUBLIC "-//W3C//DTD SVG 20010904//EN"
 "http://www.w3.org/TR/2001/REC-SVG-20010904/DTD/svg10.dtd">
<svg version="1.0" xmlns="http://www.w3.org/2000/svg"
 width="16.000000pt" height="16.000000pt" viewBox="0 0 16.000000 16.000000"
 preserveAspectRatio="xMidYMid meet">
<metadata>
Created by potrace 1.11, written by Peter Selinger 2001-2013
</metadata>
<g transform="translate(0.000000,16.000000) scale(0.006154,-0.006154)"
fill="#000000" stroke="none">
<path d="M1193 1935 c-133 -41 -216 -160 -215 -309 0 -87 8 -149 21 -174 6
-12 10 -22 7 -22 -7 0 50 -142 83 -209 65 -127 10 -188 -210 -237 -33 -7 -53
-12 -59 -14 -3 -1 -9 -3 -15 -4 -24 -4 -82 -35 -107 -57 -34 -31 -48 -84 -48
-181 l0 -78 55 0 55 0 0 64 c0 93 13 122 63 140 23 9 53 18 67 20 14 3 25 5
25 6 0 1 7 3 16 5 73 14 170 55 215 91 87 70 103 167 47 285 -74 154 -101 237
-107 326 -9 112 29 189 112 230 45 22 62 25 115 21 174 -14 233 -129 182 -356
-9 -37 -50 -142 -83 -209 -17 -35 -28 -63 -25 -63 3 0 1 -6 -5 -12 -12 -16 -9
-104 5 -139 31 -74 124 -135 248 -164 201 -48 201 -48 204 -182 l1 -63 55 0
55 0 0 78 c0 42 -5 94 -11 116 -13 47 -72 104 -117 112 -18 3 -35 10 -38 15
-3 5 -10 7 -15 3 -5 -3 -15 -2 -22 3 -7 5 -19 9 -27 8 -8 -1 -26 3 -40 8 -14
5 -33 10 -42 12 -32 7 -103 42 -127 64 -37 32 -33 88 13 184 106 224 126 395
62 530 -30 63 -79 110 -145 140 -56 25 -185 32 -248 12z"/>
<path d="M447 1623 c-3 -2 -17 -6 -33 -9 -40 -7 -90 -40 -118 -77 -70 -95 -63
-251 19 -426 19 -40 35 -84 35 -98 0 -42 -50 -78 -142 -102 -183 -48 -199 -62
-206 -183 l-5 -78 57 0 56 0 0 54 c0 33 5 58 14 65 7 6 46 20 87 30 41 11 85
24 99 29 14 5 27 9 30 9 15 -3 87 69 105 106 18 36 14 145 -6 158 -8 5 -11 9
-6 9 4 0 1 10 -7 23 -31 47 -66 164 -71 234 -2 37 16 95 36 116 20 20 81 38
110 33 13 -3 30 -5 37 -5 7 -1 28 -17 47 -36 32 -32 36 -43 39 -105 1 -32 -16
-110 -25 -115 -5 -4 -9 -12 -9 -20 0 -7 -13 -42 -29 -77 -45 -98 -45 -102 12
-103 26 -1 52 2 57 5 5 3 28 48 50 99 97 224 43 423 -125 456 -49 10 -103 14
-108 8z"/>
<path d="M2043 1615 c-58 -17 -95 -42 -124 -83 -71 -101 -66 -228 18 -413 l30
-65 54 1 c63 2 64 3 17 105 -16 36 -31 70 -32 75 -2 6 -6 17 -9 25 -53 133 -7
245 103 254 71 6 121 -26 138 -87 19 -67 0 -155 -61 -289 -20 -43 -34 -87 -32
-98 2 -11 0 -20 -4 -20 -4 0 -3 -20 3 -45 6 -25 14 -45 18 -45 5 0 8 -6 8 -12
1 -19 80 -75 130 -93 24 -8 71 -22 104 -31 34 -9 67 -20 74 -26 7 -6 12 -33
12 -64 l0 -54 56 0 57 0 -6 82 c-5 78 -7 84 -39 114 -25 23 -56 36 -122 53
-135 33 -186 64 -186 111 0 15 16 61 35 103 64 138 82 255 55 353 -33 116
-172 186 -297 149z"/>
</g>
</svg>
